<svg width="253" height="252" viewBox="0 0 253 252" fill="none" xmlns="http://www.w3.org/2000/svg">
<circle cx="135.25" cy="135.478" r="78.7556" fill="#F1F3FF"/>
<circle cx="47.0711" cy="113.265" r="17.95" fill="#F1F3FF"/>
<circle cx="81.625" cy="41.4648" r="11.2188" fill="#F1F3FF"/>
<circle cx="205.256" cy="56.0495" r="8.75062" fill="#F1F3FF"/>
<circle cx="202.563" cy="187.533" r="4.26312" fill="#F1F3FF"/>
<path d="M155.779 61.0712C155.445 61.0001 155.445 60.5227 155.779 60.4515L160.837 59.376C160.959 59.3501 161.054 59.2551 161.08 59.1333L162.169 54.1115C162.242 53.7786 162.716 53.7786 162.789 54.1115L163.877 59.1333C163.904 59.2551 163.999 59.3501 164.121 59.376L169.179 60.4515C169.513 60.5227 169.513 61.0001 169.179 61.0712L164.121 62.1467C163.999 62.1726 163.904 62.2676 163.877 62.3894L162.789 67.4112C162.716 67.7441 162.242 67.7441 162.169 67.4112L161.08 62.3894C161.054 62.2676 160.959 62.1726 160.837 62.1467L155.779 61.0712Z" fill="#C4CBF5"/>
<path d="M42.454 145.621C42.5544 145.147 43.2316 145.147 43.3321 145.621L44.8321 152.708C44.8687 152.881 45.0031 153.016 45.1756 153.053L52.1894 154.581C52.6604 154.684 52.6604 155.356 52.1894 155.458L45.1756 156.986C45.0031 157.024 44.8687 157.159 44.8321 157.332L43.3321 164.419C43.2316 164.893 42.5544 164.893 42.454 164.419L40.9539 157.332C40.9174 157.159 40.7829 157.024 40.6104 156.986L33.5967 155.458C33.1257 155.356 33.1257 154.684 33.5967 154.581L40.6104 153.053C40.7829 153.016 40.9174 152.881 40.9539 152.708L42.454 145.621Z" fill="#C4CBF5"/>
<path d="M155.974 207.481C156.074 207.007 156.751 207.007 156.852 207.481L157.727 211.616C157.764 211.788 157.898 211.924 158.071 211.961L162.174 212.855C162.645 212.958 162.645 213.629 162.174 213.732L158.071 214.626C157.898 214.664 157.764 214.799 157.727 214.972L156.852 219.106C156.751 219.58 156.074 219.58 155.974 219.106L155.099 214.972C155.062 214.799 154.928 214.664 154.755 214.626L150.652 213.732C150.181 213.629 150.181 212.958 150.652 212.855L154.755 211.961C154.928 211.924 155.062 211.788 155.099 211.616L155.974 207.481Z" fill="#C4CBF5"/>
<path d="M219.615 87.3863L164.694 76.8621C162.26 76.3957 159.909 77.9908 159.442 80.4249L145.37 153.859C145.105 155.244 145.506 156.673 146.453 157.717L171.975 185.869C173.457 187.504 175.908 187.818 177.755 186.611L207.501 167.172C208.52 166.506 209.225 165.455 209.454 164.26L223.178 92.6382C223.645 90.2041 222.049 87.8527 219.615 87.3863Z" fill="#C4CBF5"/>
<path d="M180.751 102.719C176.687 101.851 172.695 104.409 171.836 108.432C171.142 111.68 170.783 119.664 181.794 130.165C181.991 130.351 182.236 130.48 182.502 130.537C182.768 130.594 183.044 130.576 183.301 130.487C197.641 125.402 200.576 117.968 201.27 114.72C202.129 110.697 199.531 106.732 195.467 105.864C191.404 104.995 187.166 108.707 187.166 108.707C187.166 108.707 184.814 103.588 180.751 102.719Z" fill="white"/>
<circle cx="176.311" cy="167.563" r="5.83375" fill="#F1F3FF"/>
<path d="M116.54 53.2215L43.3355 79.7363C40.5392 80.7491 39.0934 83.837 40.1063 86.6333L74.9514 182.836C75.5276 184.427 76.8182 185.655 78.4359 186.151L129.008 201.657C131.539 202.433 134.259 201.254 135.423 198.876L157.176 154.428C157.818 153.116 157.9 151.6 157.403 150.227L123.437 56.4507C122.424 53.6544 119.336 52.2087 116.54 53.2215Z" fill="url(#paint0_linear_191_10695)" stroke="#C4CBF5" stroke-width="1.795"/>
<path d="M92.3548 100.171C92.6215 100.066 92.8232 99.8417 92.8989 99.5654C92.899 99.5653 92.899 99.5652 92.899 99.565L92.8996 99.5631L92.9034 99.5495C92.9071 99.5366 92.913 99.5161 92.9211 99.4884C92.9374 99.4331 92.9627 99.3493 92.9974 99.2404C93.0668 99.0224 93.1734 98.7045 93.3197 98.3142C93.6129 97.5321 94.0628 96.4671 94.6881 95.3354C95.9548 93.0428 97.8628 90.6189 100.515 89.578C105.951 87.4452 112.055 90.0815 114.159 95.4429C115.035 97.6761 116.095 101.671 115.24 107.371C114.383 113.076 111.599 120.546 104.698 129.707C104.548 129.904 104.347 130.055 104.117 130.146C103.887 130.236 103.637 130.261 103.394 130.219C92.1029 128.196 84.982 124.613 80.4742 121.013C75.9708 117.416 74.0309 113.766 73.1546 111.533C71.0507 106.172 73.7329 100.088 79.1681 97.9549C81.8207 96.9139 84.868 97.3933 87.3559 98.2126C88.5839 98.617 89.638 99.0919 90.3849 99.4659C90.7576 99.6525 91.0519 99.813 91.251 99.9256C91.3505 99.9819 91.4261 100.026 91.4757 100.056C91.5005 100.07 91.5187 100.081 91.5302 100.088L91.5423 100.096L91.544 100.097C91.5441 100.097 91.5442 100.097 91.5443 100.097L91.5443 100.097C91.7878 100.248 92.0882 100.275 92.3548 100.171Z" fill="#C4CBF5" stroke="#C4CBF5" stroke-width="1.81641" stroke-linecap="round" stroke-linejoin="round"/>
<circle cx="121.788" cy="176.314" r="7.40438" fill="#C4CBF5"/>
<defs>
<linearGradient id="paint0_linear_191_10695" x1="80.2432" y1="67.3228" x2="129.452" y2="203.183" gradientUnits="userSpaceOnUse">
<stop offset="0.278086" stop-color="#F1F3FF"/>
<stop offset="1" stop-color="white"/>
</linearGradient>
</defs>
</svg>
