<svg width="123" height="123" viewBox="0 0 123 123" fill="none" xmlns="http://www.w3.org/2000/svg">
<path d="M30.0417 23.75C30.0417 20.2752 27.2248 17.4583 23.75 17.4583C20.2752 17.4583 17.4583 20.2752 17.4583 23.75C17.4583 27.2248 20.2752 30.0417 23.75 30.0417C27.2248 30.0417 30.0417 27.2248 30.0417 23.75Z" fill="#0059C1"/>
<path fill-rule="evenodd" clip-rule="evenodd" d="M0.15625 17.4583C0.15625 7.90266 7.90266 0.15625 17.4583 0.15625H30.0417C39.5973 0.15625 47.3438 7.90266 47.3438 17.4583V30.0417C47.3438 39.5973 39.5973 47.3438 30.0417 47.3438H17.4583C7.90266 47.3438 0.15625 39.5973 0.15625 30.0417V17.4583ZM17.4583 9.59375C13.1148 9.59375 9.59375 13.1148 9.59375 17.4583V30.0417C9.59375 34.3852 13.1148 37.9062 17.4583 37.9062H30.0417C34.3852 37.9062 37.9062 34.3852 37.9062 30.0417V17.4583C37.9062 13.1148 34.3852 9.59375 30.0417 9.59375H17.4583Z" fill="#0059C1"/>
<path d="M23.75 92.9583C27.2248 92.9583 30.0417 95.7752 30.0417 99.25C30.0417 102.725 27.2248 105.542 23.75 105.542C20.2752 105.542 17.4583 102.725 17.4583 99.25C17.4583 95.7752 20.2752 92.9583 23.75 92.9583Z" fill="#0059C1"/>
<path fill-rule="evenodd" clip-rule="evenodd" d="M0.15625 92.9583C0.15625 83.4026 7.90266 75.6562 17.4583 75.6562H30.0417C39.5973 75.6562 47.3438 83.4027 47.3438 92.9583V105.542C47.3438 115.097 39.5973 122.844 30.0417 122.844H17.4583C7.90266 122.844 0.15625 115.097 0.15625 105.542V92.9583ZM17.4583 85.0938C13.1148 85.0938 9.59375 88.6148 9.59375 92.9583V105.542C9.59375 109.885 13.1148 113.406 17.4583 113.406H30.0417C34.3852 113.406 37.9062 109.885 37.9062 105.542V92.9583C37.9062 88.6148 34.3852 85.0938 30.0417 85.0938H17.4583Z" fill="#0059C1"/>
<path d="M99.25 17.4583C102.725 17.4583 105.542 20.2752 105.542 23.75C105.542 27.2248 102.725 30.0417 99.25 30.0417C95.7752 30.0417 92.9583 27.2248 92.9583 23.75C92.9583 20.2752 95.7752 17.4583 99.25 17.4583Z" fill="#0059C1"/>
<path fill-rule="evenodd" clip-rule="evenodd" d="M92.9583 0.15625C83.4027 0.15625 75.6562 7.90266 75.6562 17.4583V30.0417C75.6562 39.5973 83.4026 47.3438 92.9583 47.3438H105.542C115.097 47.3438 122.844 39.5973 122.844 30.0417V17.4583C122.844 7.90266 115.097 0.15625 105.542 0.15625H92.9583ZM85.0938 17.4583C85.0938 13.1148 88.6148 9.59375 92.9583 9.59375H105.542C109.885 9.59375 113.406 13.1148 113.406 17.4583V30.0417C113.406 34.3852 109.885 37.9062 105.542 37.9062H92.9583C88.6148 37.9062 85.0938 34.3852 85.0938 30.0417V17.4583Z" fill="#0059C1"/>
<path d="M118.125 75.6562C120.731 75.6562 122.844 77.7689 122.844 80.375V105.542C122.844 115.097 115.097 122.844 105.542 122.844H80.375C77.7689 122.844 75.6562 120.731 75.6562 118.125C75.6562 115.519 77.7689 113.406 80.375 113.406H105.542C109.885 113.406 113.406 109.885 113.406 105.542V80.375C113.406 77.7689 115.519 75.6562 118.125 75.6562Z" fill="#0059C1"/>
<path d="M99.25 92.9583C102.725 92.9583 105.542 95.7752 105.542 99.25C105.542 102.725 102.725 105.542 99.25 105.542C95.7752 105.542 92.9583 102.725 92.9583 99.25C92.9583 95.7752 95.7752 92.9583 99.25 92.9583Z" fill="#0059C1"/>
<path d="M118.125 61.5C118.125 58.0252 115.308 55.2083 111.833 55.2083C108.359 55.2083 105.542 58.0252 105.542 61.5C105.542 64.9748 108.359 67.7917 111.833 67.7917C115.308 67.7917 118.125 64.9748 118.125 61.5Z" fill="#0059C1"/>
<path d="M56.7812 80.375C56.7812 77.7689 58.8939 75.6562 61.5 75.6562H99.25C101.856 75.6562 103.969 77.7689 103.969 80.375C103.969 82.9811 101.856 85.0938 99.25 85.0938H61.5C58.8939 85.0938 56.7812 82.9811 56.7812 80.375Z" fill="#0059C1"/>
<path d="M30.0417 56.7812C27.4356 56.7812 25.3229 58.8939 25.3229 61.5C25.3229 64.1061 27.4356 66.2188 30.0417 66.2188H48.9167C51.5228 66.2188 53.6354 64.1061 53.6354 61.5C53.6354 58.8939 51.5228 56.7812 48.9167 56.7812H30.0417Z" fill="#0059C1"/>
<path d="M61.5 0.15625C64.1061 0.15625 66.2188 2.26891 66.2188 4.875V23.75C66.2188 26.3561 64.1061 28.4688 61.5 28.4688C58.8939 28.4688 56.7812 26.3561 56.7812 23.75V4.875C56.7812 2.26891 58.8939 0.15625 61.5 0.15625Z" fill="#0059C1"/>
<path d="M4.875 56.7812C2.26891 56.7812 0.15625 58.8939 0.15625 61.5C0.15625 64.1061 2.26891 66.2188 4.875 66.2188H11.1667C13.7728 66.2188 15.8854 64.1061 15.8854 61.5C15.8854 58.8939 13.7728 56.7812 11.1667 56.7812H4.875Z" fill="#0059C1"/>
<path d="M56.7812 111.833C56.7812 102.278 64.5276 94.5312 74.0833 94.5312H80.375C82.9811 94.5312 85.0938 96.6439 85.0938 99.25C85.0938 101.856 82.9811 103.969 80.375 103.969H74.0833C69.7398 103.969 66.2188 107.49 66.2188 111.833V118.125C66.2188 120.731 64.1061 122.844 61.5 122.844C58.8939 122.844 56.7812 120.731 56.7812 118.125V111.833Z" fill="#0059C1"/>
<path d="M74.0833 66.2188C64.5276 66.2188 56.7812 58.4723 56.7812 48.9167V42.625C56.7812 40.0189 58.8939 37.9062 61.5 37.9062C64.1061 37.9062 66.2188 40.0189 66.2188 42.625V48.9167C66.2188 53.2602 69.7398 56.7812 74.0833 56.7812H92.9583C95.5644 56.7812 97.6771 58.8939 97.6771 61.5C97.6771 64.1061 95.5644 66.2188 92.9583 66.2188H74.0833Z" fill="#0059C1"/>
</svg>
