<svg width="252" height="251" viewBox="0 0 252 251" fill="none" xmlns="http://www.w3.org/2000/svg">
<circle cx="126.224" cy="117.182" r="78.5362" fill="#F1F3FF"/>
<circle cx="52.61" cy="64.153" r="4.9225" fill="#F1F3FF"/>
<circle cx="153.521" cy="29.4716" r="9.17375" fill="#F1F3FF"/>
<circle cx="59.9938" cy="179.832" r="8.72625" fill="#F1F3FF"/>
<circle cx="210.354" cy="159.247" r="8.72625" fill="#F1F3FF"/>
<circle cx="193.349" cy="169.092" r="4.25125" fill="#F1F3FF"/>
<path d="M130.71 42.4655C130.451 42.4104 130.451 42.0401 130.71 41.9849L134.633 41.1508C134.727 41.1307 134.801 41.057 134.822 40.9625L135.666 37.0675C135.722 36.8094 136.091 36.8094 136.147 37.0675L136.991 40.9625C137.012 41.057 137.086 41.1307 137.18 41.1508L141.103 41.9849C141.362 42.0401 141.362 42.4104 141.103 42.4655L137.18 43.2997C137.086 43.3198 137.012 43.3935 136.991 43.488L136.147 47.383C136.091 47.6411 135.722 47.6411 135.666 47.383L134.822 43.488C134.801 43.3935 134.727 43.3198 134.633 43.2997L130.71 42.4655Z" fill="#C4CBF5"/>
<path d="M41.0751 122.606C41.1752 122.133 41.8506 122.133 41.9507 122.606L43.4466 129.674C43.4831 129.846 43.6171 129.981 43.7892 130.018L50.7834 131.542C51.253 131.644 51.253 132.314 50.7834 132.416L43.7892 133.94C43.6171 133.977 43.4831 134.112 43.4466 134.285L41.9507 141.352C41.8506 141.825 41.1752 141.825 41.0751 141.352L39.5792 134.285C39.5427 134.112 39.4087 133.977 39.2366 133.94L32.2424 132.416C31.7728 132.314 31.7728 131.644 32.2424 131.542L39.2366 130.018C39.4087 129.981 39.5427 129.846 39.5792 129.674L41.0751 122.606Z" fill="#C4CBF5"/>
<path d="M196.412 66.2216C196.512 65.7485 197.187 65.7485 197.288 66.2216L198.16 70.3445C198.197 70.5167 198.331 70.6516 198.503 70.689L202.595 71.5805C203.064 71.6828 203.064 72.3526 202.595 72.455L198.503 73.3464C198.331 73.3839 198.197 73.5187 198.16 73.691L197.288 77.8138C197.187 78.2869 196.512 78.2869 196.412 77.8138L195.539 73.691C195.503 73.5187 195.369 73.3839 195.197 73.3464L191.105 72.455C190.635 72.3526 190.635 71.6828 191.105 71.5805L195.197 70.689C195.369 70.6516 195.503 70.5167 195.539 70.3445L196.412 66.2216Z" fill="#C4CBF5"/>
<path d="M214.453 132.321L215.823 138.795L222.205 140.186L215.823 141.576L214.453 148.05L213.082 141.576L206.701 140.186L213.082 138.795L214.453 132.321Z" fill="white"/>
<path d="M170.75 81.6055L64.9165 122.104L87.5153 184.978L101.164 191.019L118.169 194.599L135.398 193.928L145.467 192.138L154.417 189.453L169.184 181.845L181.714 172L182.681 170.75C188.142 163.691 192.984 156.174 197.153 148.283L170.75 81.6055Z" fill="url(#paint0_linear_191_10617)"/>
<path d="M72.9717 104.204L61.7842 97.9391L158.892 61.2441L153.745 73.9979L157.549 85.8566L77.2229 116.51L72.9717 104.204Z" fill="#DDE2FF"/>
<path d="M87.0679 184.755V184.755C96.86 189.761 107.461 192.995 118.381 194.305L118.653 194.338L126.439 194.338C132.27 194.338 138.085 193.717 143.785 192.486L145.715 192.07C151.81 190.754 157.694 188.605 163.203 185.684V185.684C167.501 183.405 171.541 180.67 175.255 177.528L176.46 176.508C179.683 173.781 182.674 170.79 185.401 167.567V167.567C189.22 163.054 192.499 158.112 195.174 152.841L197.6 148.06" stroke="#C4CBF5" stroke-width="1.79"/>
<path d="M64.0581 121.171L87.5154 185.187" stroke="#C4CBF5" stroke-width="1.79"/>
<path d="M171.682 81.5674L197.416 148.808" stroke="#C4CBF5" stroke-width="1.79"/>
<path d="M60.0307 98.1245L160.268 60.4592" stroke="#C4CBF5" stroke-width="1.79"/>
<path d="M63.54 122.324L170.272 81.1629L154.538 73.8556C154.086 73.6458 153.892 73.1074 154.107 72.6579L159.587 61.1922" stroke="#C4CBF5" stroke-width="1.79"/>
<path d="M60.9301 97.8153L72.2126 103.864C72.6415 104.094 72.808 104.625 72.5876 105.059L64.0582 121.842" stroke="#C4CBF5" stroke-width="1.79"/>
<path d="M60.4785 97.0059L67.7484 115.178" stroke="#C4CBF5" stroke-width="1.79"/>
<path d="M72.748 104.876L77.223 117.406" stroke="#C4CBF5" stroke-width="1.79"/>
<path d="M154.193 73.5508L158.668 86.5283" stroke="#C4CBF5" stroke-width="1.79"/>
<path d="M159.665 61.4023L166.088 79.1064" stroke="#C4CBF5" stroke-width="1.79"/>
<circle cx="106.086" cy="116.287" r="4.69875" fill="#DDE2FF"/>
<circle cx="99.3738" cy="92.1219" r="3.35625" fill="#F1F3FF"/>
<circle cx="135.622" cy="105.099" r="4.69875" fill="#DDE2FF"/>
<circle cx="119.959" cy="84.5145" r="3.35625" fill="#F1F3FF"/>
<defs>
<linearGradient id="paint0_linear_191_10617" x1="112.128" y1="81.6055" x2="148.823" y2="191.914" gradientUnits="userSpaceOnUse">
<stop stop-color="#F1F3FF"/>
<stop offset="1" stop-color="#DDE2FF"/>
</linearGradient>
</defs>
</svg>
