<svg width="33" height="33" viewBox="0 0 33 33" fill="none" xmlns="http://www.w3.org/2000/svg">
<path d="M9.625 8.25C9.625 7.49061 9.00939 6.875 8.25 6.875C7.49061 6.875 6.875 7.49061 6.875 8.25C6.875 9.00939 7.49061 9.625 8.25 9.625C9.00939 9.625 9.625 9.00939 9.625 8.25Z" fill="white"/>
<path fill-rule="evenodd" clip-rule="evenodd" d="M3.09375 6.875C3.09375 4.78667 4.78667 3.09375 6.875 3.09375H9.625C11.7133 3.09375 13.4062 4.78667 13.4062 6.875V9.625C13.4062 11.7133 11.7133 13.4062 9.625 13.4062H6.875C4.78667 13.4062 3.09375 11.7133 3.09375 9.625V6.875ZM6.875 5.15625C5.92576 5.15625 5.15625 5.92576 5.15625 6.875V9.625C5.15625 10.5742 5.92576 11.3438 6.875 11.3438H9.625C10.5742 11.3438 11.3438 10.5742 11.3438 9.625V6.875C11.3438 5.92576 10.5742 5.15625 9.625 5.15625H6.875Z" fill="white"/>
<path d="M8.25 23.375C9.00939 23.375 9.625 23.9906 9.625 24.75C9.625 25.5094 9.00939 26.125 8.25 26.125C7.49061 26.125 6.875 25.5094 6.875 24.75C6.875 23.9906 7.49061 23.375 8.25 23.375Z" fill="white"/>
<path fill-rule="evenodd" clip-rule="evenodd" d="M3.09375 23.375C3.09375 21.2867 4.78667 19.5938 6.875 19.5938H9.625C11.7133 19.5938 13.4062 21.2867 13.4062 23.375V26.125C13.4062 28.2133 11.7133 29.9062 9.625 29.9062H6.875C4.78667 29.9062 3.09375 28.2133 3.09375 26.125V23.375ZM6.875 21.6562C5.92576 21.6562 5.15625 22.4258 5.15625 23.375V26.125C5.15625 27.0742 5.92576 27.8438 6.875 27.8438H9.625C10.5742 27.8438 11.3438 27.0742 11.3438 26.125V23.375C11.3438 22.4258 10.5742 21.6562 9.625 21.6562H6.875Z" fill="white"/>
<path d="M24.75 6.875C25.5094 6.875 26.125 7.49061 26.125 8.25C26.125 9.00939 25.5094 9.625 24.75 9.625C23.9906 9.625 23.375 9.00939 23.375 8.25C23.375 7.49061 23.9906 6.875 24.75 6.875Z" fill="white"/>
<path fill-rule="evenodd" clip-rule="evenodd" d="M23.375 3.09375C21.2867 3.09375 19.5938 4.78667 19.5938 6.875V9.625C19.5938 11.7133 21.2867 13.4062 23.375 13.4062H26.125C28.2133 13.4062 29.9062 11.7133 29.9062 9.625V6.875C29.9062 4.78667 28.2133 3.09375 26.125 3.09375H23.375ZM21.6562 6.875C21.6562 5.92576 22.4258 5.15625 23.375 5.15625H26.125C27.0742 5.15625 27.8438 5.92576 27.8438 6.875V9.625C27.8438 10.5742 27.0742 11.3438 26.125 11.3438H23.375C22.4258 11.3438 21.6562 10.5742 21.6562 9.625V6.875Z" fill="white"/>
<path d="M28.875 19.5938C29.4445 19.5938 29.9062 20.0555 29.9062 20.625V26.125C29.9062 28.2133 28.2133 29.9062 26.125 29.9062H20.625C20.0555 29.9062 19.5938 29.4445 19.5938 28.875C19.5938 28.3055 20.0555 27.8438 20.625 27.8438H26.125C27.0742 27.8438 27.8438 27.0742 27.8438 26.125V20.625C27.8438 20.0555 28.3055 19.5938 28.875 19.5938Z" fill="white"/>
<path d="M24.75 23.375C25.5094 23.375 26.125 23.9906 26.125 24.75C26.125 25.5094 25.5094 26.125 24.75 26.125C23.9906 26.125 23.375 25.5094 23.375 24.75C23.375 23.9906 23.9906 23.375 24.75 23.375Z" fill="white"/>
<path d="M28.875 16.5C28.875 15.7406 28.2594 15.125 27.5 15.125C26.7406 15.125 26.125 15.7406 26.125 16.5C26.125 17.2594 26.7406 17.875 27.5 17.875C28.2594 17.875 28.875 17.2594 28.875 16.5Z" fill="white"/>
<path d="M15.4688 20.625C15.4688 20.0555 15.9305 19.5938 16.5 19.5938H24.75C25.3195 19.5938 25.7812 20.0555 25.7812 20.625C25.7812 21.1945 25.3195 21.6562 24.75 21.6562H16.5C15.9305 21.6562 15.4688 21.1945 15.4688 20.625Z" fill="white"/>
<path d="M9.625 15.4688C9.05546 15.4688 8.59375 15.9305 8.59375 16.5C8.59375 17.0695 9.05546 17.5312 9.625 17.5312H13.75C14.3195 17.5312 14.7812 17.0695 14.7812 16.5C14.7812 15.9305 14.3195 15.4688 13.75 15.4688H9.625Z" fill="white"/>
<path d="M16.5 3.09375C17.0695 3.09375 17.5312 3.55546 17.5312 4.125V8.25C17.5312 8.81954 17.0695 9.28125 16.5 9.28125C15.9305 9.28125 15.4688 8.81954 15.4688 8.25V4.125C15.4688 3.55546 15.9305 3.09375 16.5 3.09375Z" fill="white"/>
<path d="M4.125 15.4688C3.55546 15.4688 3.09375 15.9305 3.09375 16.5C3.09375 17.0695 3.55546 17.5312 4.125 17.5312H5.5C6.06954 17.5312 6.53125 17.0695 6.53125 16.5C6.53125 15.9305 6.06954 15.4688 5.5 15.4688H4.125Z" fill="white"/>
<path d="M15.4688 27.5C15.4688 25.4117 17.1617 23.7188 19.25 23.7188H20.625C21.1945 23.7188 21.6562 24.1805 21.6562 24.75C21.6562 25.3195 21.1945 25.7812 20.625 25.7812H19.25C18.3008 25.7812 17.5312 26.5508 17.5312 27.5V28.875C17.5312 29.4445 17.0695 29.9062 16.5 29.9062C15.9305 29.9062 15.4688 29.4445 15.4688 28.875V27.5Z" fill="white"/>
<path d="M19.25 17.5312C17.1617 17.5312 15.4688 15.8383 15.4688 13.75V12.375C15.4688 11.8055 15.9305 11.3438 16.5 11.3438C17.0695 11.3438 17.5312 11.8055 17.5312 12.375V13.75C17.5312 14.6992 18.3008 15.4688 19.25 15.4688H23.375C23.9445 15.4688 24.4062 15.9305 24.4062 16.5C24.4062 17.0695 23.9445 17.5312 23.375 17.5312H19.25Z" fill="white"/>
</svg>
