<svg width="23" height="23" viewBox="0 0 23 23" fill="none" xmlns="http://www.w3.org/2000/svg">
<path d="M13.3877 19.0294V21.2889C17.3989 20.5308 20.5269 17.4065 21.2887 13.3916H19.0255C18.3373 16.1516 16.1477 18.3412 13.3877 19.0294Z" fill="#B3B3B3"/>
<path d="M9.61239 3.97414V1.71094C5.59751 2.46902 2.46951 5.59702 1.71143 9.6119H3.97463C4.66279 6.84822 6.84871 4.6623 9.61239 3.97414Z" fill="#B3B3B3"/>
<path d="M3.97463 13.3916H1.71143C2.47319 17.4065 5.60119 20.5308 9.61239 21.2889V19.0257C6.85239 18.3375 4.66279 16.1516 3.97463 13.3916Z" fill="#B3B3B3"/>
<path d="M19.0255 9.6119H21.2887C20.5306 5.59702 17.4026 2.46902 13.3877 1.71094V3.97046C16.1514 4.65862 18.3373 6.84822 19.0255 9.6119Z" fill="#B3B3B3"/>
<path d="M5.2624 11.5005C5.2624 10.8638 4.7472 10.3486 4.11056 10.3486H1.15184C0.5152 10.3486 0 10.8638 0 11.5005C0 12.1371 0.5152 12.656 1.15184 12.656H4.11056C4.7472 12.656 5.2624 12.1371 5.2624 11.5005Z" fill="#B3B3B3"/>
<path d="M21.8484 10.3486H18.8896C18.253 10.3486 17.7378 10.8638 17.7378 11.5005C17.7378 12.1371 18.253 12.656 18.8896 12.656H21.8484C22.485 12.656 23.0002 12.1371 23.0002 11.5005C23.0002 10.8638 22.485 10.3486 21.8484 10.3486Z" fill="#B3B3B3"/>
<path d="M11.5 5.26608C12.1366 5.26608 12.6518 4.7472 12.6518 4.11056V1.15552C12.6518 0.5152 12.1366 0 11.5 0C10.8633 0 10.3481 0.5152 10.3481 1.15552V4.11056C10.3481 4.7472 10.8633 5.26608 11.5 5.26608Z" fill="#B3B3B3"/>
<path d="M11.5 17.7373C10.8633 17.7373 10.3481 18.2525 10.3481 18.8891V21.8479C10.3481 22.4845 10.8633 22.9997 11.5 22.9997C12.1366 22.9997 12.6518 22.4845 12.6518 21.8479V18.8891C12.6518 18.2525 12.1366 17.7373 11.5 17.7373Z" fill="#B3B3B3"/>
<path d="M11.5012 14.931C13.3954 14.931 14.931 13.3954 14.931 11.5012C14.931 9.60689 13.3954 8.07129 11.5012 8.07129C9.60689 8.07129 8.07129 9.60689 8.07129 11.5012C8.07129 13.3954 9.60689 14.931 11.5012 14.931Z" fill="#B3B3B3"/>
</svg>
