<svg width="14" height="15" viewBox="0 0 14 15" fill="none" xmlns="http://www.w3.org/2000/svg">
<g clip-path="url(#clip0_1_637)">
<path d="M12.8242 6.75515L10.3578 8.90765L11.0966 12.1123C11.1357 12.2799 11.1246 12.4552 11.0646 12.6164C11.0046 12.7777 10.8983 12.9176 10.7592 13.0188C10.6201 13.12 10.4542 13.1779 10.2824 13.1854C10.1105 13.1928 9.94024 13.1494 9.79289 13.0606L6.99781 11.3653L4.20875 13.0606C4.06141 13.1494 3.89115 13.1928 3.71928 13.1854C3.54741 13.1779 3.38154 13.12 3.24242 13.0188C3.10329 12.9176 2.99709 12.7777 2.93707 12.6164C2.87706 12.4552 2.8659 12.2799 2.905 12.1123L3.64273 8.91094L1.17578 6.75515C1.0453 6.64262 0.950951 6.49407 0.904562 6.32812C0.858172 6.16218 0.861809 5.98624 0.915016 5.82235C0.968223 5.65847 1.06863 5.51394 1.20365 5.4069C1.33867 5.29985 1.50229 5.23505 1.67398 5.22062L4.9257 4.93898L6.195 1.91148C6.26128 1.75262 6.37309 1.61693 6.51634 1.52148C6.65958 1.42604 6.82787 1.37511 7 1.37511C7.17213 1.37511 7.34042 1.42604 7.48366 1.52148C7.62691 1.61693 7.73872 1.75262 7.805 1.91148L9.07812 4.93898L12.3288 5.22062C12.5005 5.23505 12.6641 5.29985 12.7991 5.4069C12.9341 5.51394 13.0345 5.65847 13.0877 5.82235C13.1409 5.98624 13.1446 6.16218 13.0982 6.32812C13.0518 6.49407 12.9574 6.64262 12.827 6.75515H12.8242Z" fill="#3579DD"/>
</g>
<defs>
<clipPath id="clip0_1_637">
<rect width="14" height="14" fill="white" transform="translate(0 0.5)"/>
</clipPath>
</defs>
</svg>
