<svg width="38" height="38" viewBox="0 0 38 38" fill="none" xmlns="http://www.w3.org/2000/svg">
<path fill-rule="evenodd" clip-rule="evenodd" d="M20.3313 2.31524C19.8419 1.89492 19.1189 1.89492 18.6295 2.31524L16.7264 3.94962C16.4116 4.22002 15.9869 4.32468 15.5825 4.23157L13.1379 3.6688C12.5092 3.52406 11.869 3.86006 11.631 4.45968L10.7054 6.79124C10.5523 7.17699 10.225 7.467 9.82357 7.57251L7.39745 8.21026C6.77351 8.37427 6.3628 8.96929 6.43069 9.61085L6.6947 12.1055C6.73838 12.5182 6.5833 12.9271 6.27692 13.2071L4.42507 14.8992C3.94882 15.3344 3.86167 16.0522 4.21994 16.5887L5.61301 18.6749C5.84349 19.02 5.8962 19.4541 5.75502 19.8444L4.90168 22.2034C4.68223 22.81 4.9386 23.4861 5.50517 23.7946L7.70817 24.9944C8.07264 25.193 8.32108 25.5529 8.37744 25.9641L8.7181 28.4494C8.80571 29.0885 9.34689 29.568 9.99195 29.5779L12.5002 29.6165C12.9152 29.6229 13.3024 29.8261 13.5434 30.164L15 32.2063C15.3746 32.7316 16.0766 32.9046 16.6524 32.6136L18.8913 31.4822C19.2617 31.295 19.6991 31.295 20.0695 31.4822L22.3084 32.6136C22.8841 32.9046 23.5861 32.7316 23.9607 32.2063L25.4174 30.164C25.6584 29.8261 26.0456 29.6229 26.4606 29.6165L28.9688 29.5779C29.6139 29.568 30.1551 29.0885 30.2427 28.4494L30.5833 25.9641C30.6397 25.5529 30.8881 25.193 31.2526 24.9944L33.4556 23.7946C34.0222 23.4861 34.2785 22.81 34.0591 22.2034L33.2058 19.8444C33.0646 19.4541 33.1173 19.02 33.3478 18.6749L34.7408 16.5887C35.0991 16.0522 35.012 15.3344 34.5357 14.8992L32.6839 13.2071C32.3775 12.9271 32.2224 12.5182 32.2661 12.1055L32.5301 9.61085C32.598 8.96929 32.1873 8.37427 31.5633 8.21026L29.1372 7.57251C28.7358 7.467 28.4085 7.17699 28.2553 6.79125L27.3298 4.45968C27.0918 3.86006 26.4516 3.52406 25.8229 3.6688L23.3783 4.23157C22.9738 4.32468 22.5492 4.22002 22.2344 3.94962L20.3313 2.31524ZM20.4949 10.9712C20.1264 10.2342 19.0746 10.2342 18.706 10.9712L17.2465 13.8903C17.097 14.1894 16.8079 14.3939 16.4761 14.4354L13.7133 14.7808C12.9131 14.8808 12.5543 15.8383 13.0918 16.4395L15.0694 18.6517C15.2724 18.8788 15.3608 19.186 15.3096 19.4862L14.7453 22.7977C14.6077 23.605 15.4457 24.2264 16.1782 23.8601L19.1533 22.3726C19.4348 22.2319 19.7662 22.2319 20.0477 22.3726L23.0259 23.8617C23.7578 24.2277 24.5954 23.6076 24.4591 22.8007L23.899 19.4847C23.8484 19.1853 23.9366 18.8792 24.1387 18.6526L26.1127 16.4389C26.6491 15.8375 26.2901 14.8811 25.4904 14.7811L22.7249 14.4354C22.3931 14.3939 22.104 14.1894 21.9545 13.8903L20.4949 10.9712Z" fill="black"/>
</svg>
