<svg width="20" height="24" viewBox="0 0 20 24" fill="none" xmlns="http://www.w3.org/2000/svg">
<path d="M11.0077 5.5124C10.8253 5.55412 10.6667 5.57337 10.5391 5.58103C10.5419 5.38416 10.5592 5.12242 10.6127 4.82429C10.7324 4.15702 11.0298 3.32507 11.7359 2.61894C12.4665 1.88835 13.2265 1.51655 13.7995 1.32691C13.9886 1.26432 14.1572 1.22164 14.2973 1.19258C14.2928 1.39862 14.2736 1.66297 14.2212 1.96078C14.0949 2.67695 13.7797 3.56729 13.0301 4.31694C12.2593 5.08766 11.5285 5.39329 11.0077 5.5124Z" fill="white" stroke="white" stroke-width="0.874384"/>
<path d="M10.2982 7.34587C9.13804 7.33793 8.42539 6.3362 6.44958 6.3362C4.67176 6.3362 2.88957 7.48323 2.13177 8.5931C1.37749 9.69779 0.724182 10.9094 0.724182 13.3682C0.724182 15.8271 1.90808 20.0558 4.81929 22.9185C5.31785 23.4087 5.97782 23.7772 6.73072 23.8C8.08486 23.841 8.91635 22.8274 10.6268 22.8274C12.3373 22.8274 12.852 23.8 14.3962 23.8C15.0984 23.8 15.8992 23.4802 16.6769 22.6532C17.6747 21.5921 18.9128 19.5711 19.5435 17.6326C19.5435 17.6326 16.3853 16.4129 16.4235 12.897C16.4551 9.98288 18.9298 8.54953 18.9298 8.54953C18.9298 8.54953 17.4846 6.24512 14.4121 6.24512C12.2898 6.26099 11.3395 7.35299 10.2982 7.34587Z" fill="white"/>
</svg>
