<svg width="69" height="68" viewBox="0 0 69 68" fill="none" xmlns="http://www.w3.org/2000/svg">
<circle cx="34" cy="34" r="34" fill="#102011"/>
<g clip-path="url(#clip0_191_9245)">
<path d="M34 8C28.8577 8 23.8309 9.52487 19.5552 12.3818C15.2795 15.2387 11.947 19.2993 9.97914 24.0502C8.01127 28.8011 7.49638 34.0288 8.49959 39.0723C9.50281 44.1159 11.9791 48.7486 15.6152 52.3848C19.2514 56.0209 23.8842 58.4972 28.9277 59.5004C33.9712 60.5036 39.1989 59.9887 43.9498 58.0209C48.7006 56.053 52.7613 52.7205 55.6182 48.4448C58.4751 44.1691 60 39.1423 60 34C59.9927 27.1066 57.2511 20.4976 52.3767 15.6233C47.5024 10.7489 40.8934 8.00728 34 8Z" fill="white"/>
<path d="M34 8C28.8577 8 23.8309 9.52487 19.5552 12.3818C15.2795 15.2387 11.947 19.2993 9.97914 24.0502C8.01127 28.8011 7.49638 34.0288 8.49959 39.0723C9.50281 44.1158 11.9791 48.7486 15.6152 52.3848C19.2514 56.0209 23.8842 58.4972 28.9277 59.5004C33.9712 60.5036 39.1989 59.9887 43.9498 58.0209C48.7006 56.053 52.7613 52.7205 55.6182 48.4448C58.4751 44.1691 60 39.1423 60 34C59.9927 27.1066 57.2511 20.4976 52.3767 15.6233C47.5024 10.7489 40.8934 8.00728 34 8ZM45.415 29.415L31.415 43.415C31.2293 43.6009 31.0087 43.7485 30.7659 43.8491C30.5231 43.9498 30.2628 44.0016 30 44.0016C29.7372 44.0016 29.4769 43.9498 29.2341 43.8491C28.9913 43.7485 28.7708 43.6009 28.585 43.415L22.585 37.415C22.2097 37.0397 21.9989 36.5307 21.9989 36C21.9989 35.4693 22.2097 34.9603 22.585 34.585C22.9603 34.2097 23.4693 33.9989 24 33.9989C24.5307 33.9989 25.0397 34.2097 25.415 34.585L30 39.1725L42.585 26.585C42.7708 26.3992 42.9914 26.2518 43.2342 26.1512C43.477 26.0506 43.7372 25.9989 44 25.9989C44.2628 25.9989 44.523 26.0506 44.7658 26.1512C45.0086 26.2518 45.2292 26.3992 45.415 26.585C45.6008 26.7708 45.7482 26.9914 45.8488 27.2342C45.9494 27.477 46.0011 27.7372 46.0011 28C46.0011 28.2628 45.9494 28.523 45.8488 28.7658C45.7482 29.0086 45.6008 29.2292 45.415 29.415Z" fill="#32B638"/>
</g>
<defs>
<clipPath id="clip0_191_9245">
<rect width="68" height="68" fill="white" transform="translate(0.415039)"/>
</clipPath>
</defs>
</svg>
