<svg width="66" height="66" viewBox="0 0 66 66" fill="none" xmlns="http://www.w3.org/2000/svg">
<g filter="url(#filter0_d_191_10466)">
<rect x="12" y="8" width="42" height="42" rx="21" fill="#3579DD" shape-rendering="crispEdges"/>
<path fill-rule="evenodd" clip-rule="evenodd" d="M42.048 27.3979L40.1885 32.9763C38.8774 36.9095 38.2219 38.8761 37.2606 39.4349C36.3461 39.9666 35.2167 39.9666 34.3022 39.4349C33.3409 38.8761 32.6854 36.9095 31.3743 32.9763C31.1638 32.3448 31.0585 32.029 30.8818 31.7651C30.7106 31.5093 30.4909 31.2896 30.2351 31.1183C29.9712 30.9416 29.6554 30.8364 29.0239 30.6259C25.0907 29.3148 23.1241 28.6593 22.5652 27.698C22.0336 26.7835 22.0336 25.654 22.5652 24.7396C23.1241 23.7783 25.0907 23.1227 29.0239 21.8117L34.6023 19.9522C39.4756 18.3278 41.9122 17.5156 43.1984 18.8018C44.4846 20.088 43.6724 22.5246 42.048 27.3979ZM34.1327 27.811C33.8171 27.492 33.82 26.9775 34.139 26.662L38.7004 22.1509C39.0195 21.8353 39.5339 21.8382 39.8495 22.1572C40.165 22.4763 40.1622 22.9907 39.8431 23.3063L35.2817 27.8174C34.9626 28.1329 34.4482 28.1301 34.1327 27.811Z" fill="white"/>
</g>
<defs>
<filter id="filter0_d_191_10466" x="0" y="0" width="66" height="66" filterUnits="userSpaceOnUse" color-interpolation-filters="sRGB">
<feFlood flood-opacity="0" result="BackgroundImageFix"/>
<feColorMatrix in="SourceAlpha" type="matrix" values="0 0 0 0 0 0 0 0 0 0 0 0 0 0 0 0 0 0 127 0" result="hardAlpha"/>
<feOffset dy="4"/>
<feGaussianBlur stdDeviation="6"/>
<feComposite in2="hardAlpha" operator="out"/>
<feColorMatrix type="matrix" values="0 0 0 0 0.0509804 0 0 0 0 0.0392157 0 0 0 0 0.172549 0 0 0 0.06 0"/>
<feBlend mode="normal" in2="BackgroundImageFix" result="effect1_dropShadow_191_10466"/>
<feBlend mode="normal" in="SourceGraphic" in2="effect1_dropShadow_191_10466" result="shape"/>
</filter>
</defs>
</svg>
