<svg width="8" height="8" viewBox="0 0 8 8" fill="none" xmlns="http://www.w3.org/2000/svg">
<path d="M4.31153 1.72702C3.7757 1.72702 3.46417 1.94986 3.46417 2.29526C3.46417 3.35376 7.57632 2.52925 7.57632 5.37047C7.57632 6.88579 6.09346 8 3.68847 8C1.25857 8 0.0373832 6.91922 0 5.2702H2.67913C2.71651 5.90529 3.12773 6.27298 3.80062 6.27298C4.47352 6.27298 4.87227 6.039 4.87227 5.60446C4.87227 4.52368 0.772586 5.22563 0.772586 2.58496C0.772586 1.20334 1.95639 0 4.54829 0C6.71651 0 8 1.01393 8 2.61838H5.33333C5.28349 2.039 5.00935 1.72702 4.31153 1.72702Z" fill="#3579DD"/>
</svg>
