<svg width="30" height="30" viewBox="0 0 30 30" fill="none" xmlns="http://www.w3.org/2000/svg">
<path d="M25.0455 19.3756L23.7184 17.1605C23.2432 16.3685 22.9936 15.4624 22.9936 14.5396V11.3872C22.9936 6.92803 19.3624 3.29924 14.8996 3.29924C10.4368 3.29924 6.80555 6.92683 6.80555 11.3872V14.5396C6.80555 15.4624 6.55474 16.3685 6.08074 17.1605L4.75356 19.3756C4.29156 20.1448 4.28076 21.0712 4.72236 21.8512C5.16516 22.6336 5.96554 23.1004 6.86434 23.1004H11.6404C11.6308 23.2012 11.6008 23.2984 11.6008 23.4004C11.6008 25.2208 13.0804 26.7004 14.9008 26.7004C16.7212 26.7004 18.2008 25.2208 18.2008 23.4004C18.2008 23.2984 18.1707 23.2012 18.1611 23.1004H22.9372C23.836 23.1004 24.6375 22.6336 25.0791 21.8524C25.5195 21.0712 25.5075 20.1448 25.0455 19.3756ZM16.3984 23.4004C16.3984 24.2272 15.7252 24.9004 14.8984 24.9004C14.0716 24.9004 13.3984 24.2272 13.3984 23.4004C13.3984 23.2984 13.4176 23.1988 13.438 23.1004H16.3587C16.3791 23.1988 16.3984 23.2984 16.3984 23.4004ZM23.5108 20.9644C23.4532 21.0652 23.284 21.2992 22.9348 21.2992H6.86195C6.51395 21.2992 6.34355 21.0652 6.28595 20.9644C6.22955 20.8636 6.11556 20.5984 6.29436 20.3008L7.62156 18.0857C8.26476 17.0141 8.60315 15.7876 8.60315 14.5396V11.3872C8.60315 7.92043 11.4267 5.09924 14.8971 5.09924C18.3675 5.09924 21.1912 7.92043 21.1912 11.3872V14.5396C21.1912 15.7876 21.5308 17.0141 22.1728 18.0857L23.5 20.3008C23.68 20.5984 23.5672 20.8636 23.5108 20.9644Z" fill="white"/>
</svg>
