<svg width="44" height="44" viewBox="0 0 44 44" fill="none" xmlns="http://www.w3.org/2000/svg">
<rect x="0.5" y="0.5" width="43" height="43" rx="21.5" fill="#090D14"/>
<rect x="0.5" y="0.5" width="43" height="43" rx="21.5" stroke="#202938"/>
<g clip-path="url(#clip0_191_8155)">
<path d="M17.5 31.75C18.3284 31.75 19 31.0784 19 30.25C19 29.4216 18.3284 28.75 17.5 28.75C16.6716 28.75 16 29.4216 16 30.25C16 31.0784 16.6716 31.75 17.5 31.75Z" fill="white"/>
<path d="M27.25 31.75C28.0784 31.75 28.75 31.0784 28.75 30.25C28.75 29.4216 28.0784 28.75 27.25 28.75C26.4216 28.75 25.75 29.4216 25.75 30.25C25.75 31.0784 26.4216 31.75 27.25 31.75Z" fill="white"/>
<path d="M13.9647 16.75H31L28.3262 25.4416C28.2318 25.7482 28.0415 26.0165 27.7833 26.207C27.5252 26.3975 27.2127 26.5002 26.8919 26.5H17.8816C17.5556 26.5001 17.2384 26.3941 16.9781 26.1978C16.7177 26.0016 16.5284 25.7259 16.4388 25.4125L13.0478 13.5437C13.003 13.3871 12.9084 13.2493 12.7783 13.1512C12.6483 13.0531 12.4898 13 12.3269 13H10.75" stroke="white" stroke-width="1.5" stroke-linecap="round" stroke-linejoin="round"/>
</g>
<defs>
<clipPath id="clip0_191_8155">
<rect width="24" height="24" fill="white" transform="translate(10 10)"/>
</clipPath>
</defs>
</svg>
