<svg width="14" height="14" viewBox="0 0 14 14" fill="none" xmlns="http://www.w3.org/2000/svg">
<g clip-path="url(#clip0_191_8115)">
<path d="M2.91037 10.9375C2.91037 10.9375 4.3749 10.0625 6.9999 10.0625C9.6249 10.0625 11.0894 10.9375 11.0894 10.9375L13.1129 4.7365C13.1276 4.69437 13.1294 4.64879 13.1181 4.60563C13.1067 4.56246 13.0827 4.52368 13.0491 4.49427C13.0155 4.46486 12.9739 4.44618 12.9296 4.44062C12.8854 4.43505 12.8404 4.44287 12.8006 4.46306L9.87865 5.91994C9.82806 5.94494 9.76993 5.95005 9.71575 5.93425C9.66157 5.91846 9.61529 5.8829 9.58607 5.83463L7.1924 1.85939C7.17238 1.82658 7.14426 1.79946 7.11074 1.78065C7.07722 1.76183 7.03943 1.75195 7.00099 1.75195C6.96256 1.75195 6.92476 1.76183 6.89124 1.78065C6.85773 1.79946 6.82961 1.82658 6.80959 1.85939L4.41373 5.83627C4.38458 5.88478 4.33821 5.92051 4.28387 5.93632C4.22953 5.95214 4.17123 5.94687 4.1206 5.92158L1.20302 4.4658C1.16319 4.44573 1.11826 4.438 1.07401 4.4436C1.02975 4.4492 0.98817 4.46787 0.954583 4.49723C0.920996 4.52659 0.896931 4.5653 0.885464 4.60841C0.873997 4.65152 0.87565 4.69707 0.890212 4.73924L2.91037 10.9375Z" stroke="white" stroke-width="1.2" stroke-linecap="round" stroke-linejoin="round"/>
<path d="M4.8125 8.49898C6.26023 8.25034 7.73977 8.25034 9.1875 8.49898" stroke="white" stroke-width="1.2" stroke-linecap="round" stroke-linejoin="round"/>
</g>
<defs>
<clipPath id="clip0_191_8115">
<rect width="14" height="14" fill="white"/>
</clipPath>
</defs>
</svg>
