<svg width="17" height="18" viewBox="0 0 17 18" fill="none" xmlns="http://www.w3.org/2000/svg">
<path d="M6 12.5H3.25245C3.018 12.5 2.90078 12.5 2.80205 12.5098C1.85403 12.6041 1.10411 13.354 1.00982 14.302C1 14.4008 1 14.518 1 14.7525V14.7525C1 15.0322 1 15.1721 1.01244 15.2831C1.13321 16.3608 2.0909 17.146 3.17139 17.053C3.28269 17.0435 3.41986 17.016 3.69419 16.9612L3.99029 16.9019C4.37076 16.8258 4.56099 16.7878 4.7215 16.7257C5.3765 16.4724 5.85063 15.894 5.9706 15.2021C6 15.0325 6 14.8385 6 14.4505V5.77922C6 4.20946 6 3.42459 6.45332 2.87163C6.90663 2.31867 7.67627 2.16475 9.21554 1.85689L11.2155 1.45689C13.4291 1.01417 14.536 0.792809 15.268 1.39292C16 1.99304 16 3.12176 16 5.37922V5.5V10.5M16 10.5V12.4505C16 12.8385 16 13.0325 15.9706 13.2021C15.8506 13.894 15.3765 14.4724 14.7215 14.7257C14.561 14.7878 14.3708 14.8258 13.9903 14.9019L13.6942 14.9612C13.4199 15.016 13.2827 15.0435 13.1714 15.053C12.0909 15.146 11.1332 14.3608 11.0124 13.2831C11 13.1721 11 13.0322 11 12.7525V12.7525C11 12.518 11 12.4008 11.0098 12.302C11.1041 11.354 11.854 10.6041 12.802 10.5098C12.9008 10.5 13.018 10.5 13.2525 10.5H16Z" stroke="#E6E6E6"/>
</svg>
