<svg width="13" height="16" viewBox="0 0 13 16" fill="none" xmlns="http://www.w3.org/2000/svg">
<path d="M10.875 0H2.125C1.79348 0 1.47554 0.131696 1.24112 0.366116C1.0067 0.600537 0.875 0.918479 0.875 1.25V15C0.875055 15.1115 0.904959 15.221 0.961608 15.3171C1.01826 15.4132 1.09959 15.4924 1.19716 15.5464C1.29473 15.6005 1.40498 15.6274 1.51648 15.6245C1.62798 15.6215 1.73666 15.5888 1.83125 15.5297L6.5 12.6117L11.1695 15.5297C11.2641 15.5886 11.3727 15.6212 11.4841 15.624C11.5955 15.6268 11.7056 15.5998 11.803 15.5458C11.9005 15.4918 11.9817 15.4127 12.0383 15.3167C12.0949 15.2208 12.1249 15.1114 12.125 15V1.25C12.125 0.918479 11.9933 0.600537 11.7589 0.366116C11.5245 0.131696 11.2065 0 10.875 0ZM10.875 13.8727L6.83047 11.3453C6.73114 11.2832 6.61636 11.2503 6.49922 11.2503C6.38208 11.2503 6.2673 11.2832 6.16797 11.3453L2.125 13.8727V1.25H10.875V13.8727Z" fill="white"/>
</svg>
