<svg width="25" height="24" viewBox="0 0 25 24" fill="none" xmlns="http://www.w3.org/2000/svg">
<g clip-path="url(#clip0_191_8168)">
<path d="M21.5 10.8332V19.5004C21.5 19.8982 21.342 20.2797 21.0607 20.561C20.7794 20.8423 20.3978 21.0004 20 21.0004H16.25C15.8522 21.0004 15.4706 20.8423 15.1893 20.561C14.908 20.2797 14.75 19.8982 14.75 19.5004V15.7504C14.75 15.5514 14.671 15.3607 14.5303 15.22C14.3897 15.0794 14.1989 15.0004 14 15.0004H11C10.8011 15.0004 10.6103 15.0794 10.4697 15.22C10.329 15.3607 10.25 15.5514 10.25 15.7504V19.5004C10.25 19.8982 10.092 20.2797 9.81066 20.561C9.52936 20.8423 9.14782 21.0004 8.75 21.0004H5C4.60218 21.0004 4.22064 20.8423 3.93934 20.561C3.65804 20.2797 3.5 19.8982 3.5 19.5004V10.8332C3.49997 10.6256 3.54303 10.4202 3.62646 10.2301C3.70989 10.04 3.83187 9.86932 3.98469 9.7288L11.4847 2.65255L11.495 2.64223C11.7711 2.39111 12.131 2.25195 12.5042 2.25195C12.8775 2.25195 13.2373 2.39111 13.5134 2.64223C13.5166 2.6459 13.5201 2.64935 13.5238 2.65255L21.0238 9.7288C21.175 9.87006 21.2954 10.0411 21.3774 10.2312C21.4594 10.4212 21.5011 10.6262 21.5 10.8332Z" fill="#3579DD"/>
</g>
<defs>
<clipPath id="clip0_191_8168">
<rect width="24" height="24" fill="white" transform="translate(0.5)"/>
</clipPath>
</defs>
</svg>
