<svg width="18" height="18" viewBox="0 0 18 18" fill="none" xmlns="http://www.w3.org/2000/svg">
<path fill-rule="evenodd" clip-rule="evenodd" d="M15.9992 6.62147L16.5994 7.22147C17.0745 7.68814 17.333 8.32147 17.333 8.98814C17.3413 9.65481 17.0829 10.289 16.616 10.7631C16.6105 10.7692 16.6049 10.7746 16.5994 10.78C16.5966 10.7827 16.5938 10.7854 16.591 10.7881L15.9992 11.3798C15.7657 11.6131 15.6324 11.9298 15.6324 12.264V13.1215C15.6324 14.5048 14.507 15.6306 13.1231 15.6306H12.2645C11.931 15.6306 11.6142 15.7631 11.3808 15.9965L10.7806 16.5965C10.2888 17.089 9.64686 17.3298 9.00496 17.3298C8.36306 17.3298 7.72116 17.089 7.22931 16.6056L6.62076 15.9965C6.38734 15.7631 6.07056 15.6306 5.7371 15.6306H4.87846C3.49463 15.6306 2.36922 14.5048 2.36922 13.1215V12.264C2.36922 11.9298 2.23584 11.6131 2.00242 11.3715L1.4022 10.7798C0.426847 9.80564 0.418511 8.21314 1.39386 7.23064L2.00242 6.62147C2.23584 6.38814 2.36922 6.07147 2.36922 5.72981V4.87981C2.36922 3.49647 3.49463 2.37231 4.87846 2.37231H5.7371C6.07056 2.37231 6.38734 2.23814 6.62076 2.00481L7.22098 1.40481C8.19633 0.422307 9.78857 0.422307 10.7723 1.39731L11.3808 2.00481C11.6142 2.23814 11.931 2.37231 12.2645 2.37231H13.1231C14.507 2.37231 15.6324 3.49647 15.6324 4.87981V5.73897C15.6324 6.07147 15.7657 6.38814 15.9992 6.62147ZM6.85418 11.8715C7.05425 11.8715 7.23765 11.7965 7.37103 11.6548L11.6559 7.37231C11.9394 7.08897 11.9394 6.62147 11.6559 6.33814C11.3725 6.05564 10.914 6.05564 10.6305 6.33814L6.34566 10.6215C6.06222 10.9048 6.06222 11.3715 6.34566 11.6548C6.47904 11.7965 6.66244 11.8715 6.85418 11.8715ZM10.4138 11.1381C10.4138 11.5465 10.7389 11.8715 11.1474 11.8715C11.5475 11.8715 11.8727 11.5465 11.8727 11.1381C11.8727 10.739 11.5475 10.4131 11.1474 10.4131C10.7389 10.4131 10.4138 10.739 10.4138 11.1381ZM6.86251 6.12981C7.26266 6.12981 7.58778 6.45481 7.58778 6.85481C7.58778 7.26397 7.26266 7.58814 6.86251 7.58814C6.46237 7.58814 6.12891 7.26397 6.12891 6.85481C6.12891 6.45481 6.46237 6.12981 6.86251 6.12981Z" fill="#3579DD"/>
</svg>
