<svg width="29" height="28" viewBox="0 0 29 28" fill="none" xmlns="http://www.w3.org/2000/svg">
<path d="M14.3 25.6667C20.7433 25.6667 25.9666 20.4433 25.9666 14C25.9666 7.55668 20.7433 2.33334 14.3 2.33334C7.85665 2.33334 2.6333 7.55668 2.6333 14C2.6333 20.4433 7.85665 25.6667 14.3 25.6667Z" stroke="#FAFAFA" stroke-linecap="round" stroke-linejoin="round"/>
<path d="M14.3 15.1667C16.233 15.1667 17.8 13.5997 17.8 11.6667C17.8 9.73367 16.233 8.16666 14.3 8.16666C12.3671 8.16666 10.8 9.73367 10.8 11.6667C10.8 13.5997 12.3671 15.1667 14.3 15.1667Z" stroke="#FAFAFA" stroke-linecap="round" stroke-linejoin="round"/>
<path d="M8.4668 24.1057V22.1667C8.4668 21.5478 8.71263 20.9543 9.15021 20.5168C9.5878 20.0792 10.1813 19.8333 10.8001 19.8333H17.8001C18.419 19.8333 19.0125 20.0792 19.45 20.5168C19.8876 20.9543 20.1335 21.5478 20.1335 22.1667V24.1057" stroke="#FAFAFA" stroke-linecap="round" stroke-linejoin="round"/>
</svg>
